# File created by Blade
# Date/Time:  Thu Sep 25 14:26:36 2014
# Frame Rate: 120.000 fps
#------------------------------------------------------
:FULLY-SPECIFIED
:DEGREES
1588
root 0.149787 28.166756 -2.516622 24.205449 85.945629 115.347746
Spine -52.235033 3.818402 -1.347889
Head -107.388001 -2.062835 0.462417
LeftShoulder -29.284719 -4.202478 37.394530
LeftArm 130.812360 -68.929298 -117.962867
LeftForeArm 39.227078 -0.000000 47.712236
LeftHand -34.848909 -0.000000 119.475670
LeftHandThumb1 -26.253704 0.000000 33.147579
RightShoulder -34.571576 25.190785 -61.329824
RightArm 217.039054 112.729505 218.776976
RightForeArm -46.286692 -0.000000 65.528974
RightHand -12.368338 -0.000000 -80.748944
RightHandThumb1 -24.326973 -0.000000 -32.862282
LeftUpLeg 37.986535 2.597335 24.931202
LeftLeg 77.288952 -0.000000 -0.000000
LeftFoot 19.216898 16.031809 -18.576864
LeftToeBase -45.101720 -0.000000 0.000000
RightUpLeg 33.463477 5.783897 -23.892047
RightLeg 79.253601 -0.000000 -0.000000
RightFoot 29.541861 -16.311815 -4.200005
RightToeBase -41.210507 -0.000000 0.000000
1589
root 0.057657 28.182207 -2.513251 23.540450 85.941698 114.604074
Spine -52.436563 3.774334 -1.371762
Head -107.491719 -1.784161 0.388082
LeftShoulder -30.089389 -2.498069 37.777113
LeftArm 132.457334 -66.918525 -121.564489
LeftForeArm 39.969634 -0.000000 48.982645
LeftHand -35.332092 -0.000000 118.481387
LeftHandThumb1 -26.253704 0.000000 33.147579
RightShoulder -34.421187 25.297103 -60.864235
RightArm 216.962288 112.561271 218.146274
RightForeArm -46.152687 -0.000000 65.285502
RightHand -12.256911 -0.000000 -80.593678
RightHandThumb1 -24.326973 -0.000000 -32.862282
LeftUpLeg 37.884134 2.740056 24.957401
LeftLeg 77.046641 -0.000000 -0.000000
LeftFoot 19.347754 16.193641 -18.556261
LeftToeBase -44.841470 -0.000000 0.000000
RightUpLeg 33.304333 5.645820 -23.889787
RightLeg 79.016135 -0.000000 -0.000000
RightFoot 29.780005 -16.428582 -4.516882
RightToeBase -40.658252 -0.000000 0.000000
1590
root -0.029082 28.206641 -2.510095 23.197311 85.964114 114.257365
Spine -52.544411 3.488339 -1.447563
Head -107.485736 -1.119715 0.716520
LeftShoulder -31.550385 1.314722 38.862273
LeftArm 134.571179 -63.236083 -128.147714
LeftForeArm 41.204409 -0.000000 51.724666
LeftHand -36.183931 -0.000000 117.401317
LeftHandThumb1 -26.253704 0.000000 33.147579
RightShoulder -33.952265 25.665170 -59.770198
RightArm 216.355987 112.317305 216.345409
RightForeArm -45.785704 -0.000000 64.755895
RightHand -12.366129 -0.000000 -80.774417
RightHandThumb1 -24.326973 -0.000000 -32.862282
LeftUpLeg 37.873012 2.810287 24.956603
LeftLeg 76.762761 -0.000000 -0.000000
LeftFoot 19.474086 16.323860 -18.438626
LeftToeBase -44.613006 -0.000000 0.000000
RightUpLeg 33.271177 5.545381 -23.956602
RightLeg 78.715976 -0.000000 -0.000000
RightFoot 29.963898 -16.386385 -4.297937
RightToeBase -40.982231 -0.000000 0.000000
1591
root -0.106897 28.230438 -2.503772 23.359870 86.075612 114.465991
Spine -52.600109 2.973106 -1.581337
Head -107.404461 -0.201292 1.220436
LeftShoulder -33.097907 7.602604 40.275107
LeftArm 136.963769 -58.542760 -137.248931
LeftForeArm 41.772919 -0.000000 55.436409
LeftHand -36.938468 -0.000000 115.829228
LeftHandThumb1 -26.253704 0.000000 33.147579
RightShoulder -33.332333 26.256416 -58.309492
RightArm 215.666686 112.104860 214.111023
RightForeArm -45.345806 0.000000 64.075893
RightHand -12.663369 -0.000000 -81.212485
RightHandThumb1 -24.326973 -0.000000 -32.862282
LeftUpLeg 37.864126 2.757113 24.961633
LeftLeg 76.520588 -0.000000 -0.000000
LeftFoot 19.542522 16.427056 -18.424452
LeftToeBase -44.398115 -0.000000 0.000000
RightUpLeg 33.339960 5.363043 -23.996580
RightLeg 78.421958 -0.000000 -0.000000
RightFoot 30.198964 -16.390995 -4.320952
RightToeBase -40.904244 -0.000000 0.000000
1592
root -0.181824 28.262740 -2.496404 22.853624 86.095972 114.071433
Spine -52.640390 2.519001 -1.748527
Head -107.214033 0.780297 1.800873
LeftShoulder -33.999997 14.831275 41.702547
LeftArm 138.991603 -54.253048 -146.461010
LeftForeArm 41.292994 -0.000000 58.916643
LeftHand -37.647819 -0.000000 114.353343
LeftHandThumb1 -26.253704 0.000000 33.147579
RightShoulder -32.440486 26.855276 -56.732807
RightArm 214.193741 111.819018 211.101310
RightForeArm -44.783140 0.000000 63.384930
RightHand -12.732811 -0.000000 -81.533844
RightHandThumb1 -24.326973 -0.000000 -32.862282
LeftUpLeg 38.006234 2.752541 24.969104
LeftLeg 76.205526 -0.000000 -0.000000
LeftFoot 19.640452 16.563296 -18.525279
LeftToeBase -44.273540 -0.000000 0.000000
RightUpLeg 33.442098 5.271244 -24.037327
RightLeg 78.095835 -0.000000 -0.000000
RightFoot 30.570537 -16.444584 -4.654598
RightToeBase -40.790019 -0.000000 0.000000
1593
root -0.257685 28.288699 -2.490414 23.372222 86.125475 114.679748
Spine -52.693349 2.092983 -1.918892
Head -107.062066 1.530373 2.344268
LeftShoulder -34.124016 19.576275 42.602399
LeftArm 140.421430 -52.219102 -152.316048
LeftForeArm 40.319556 -0.000000 60.942201
LeftHand -38.038588 -0.000000 113.524343
LeftHandThumb1 -26.253704 0.000000 33.147579
RightShoulder -31.655933 27.336788 -55.465369
RightArm 212.690951 111.567895 208.444467
RightForeArm -44.318451 -0.000000 62.926061
RightHand -12.724431 -0.000000 -81.617166
RightHandThumb1 -24.326973 -0.000000 -32.862282
LeftUpLeg 38.076475 2.726872 24.922328
LeftLeg 75.933756 -0.000000 -0.000000
LeftFoot 19.739250 16.677312 -18.641605
LeftToeBase -44.112959 -0.000000 0.000000
RightUpLeg 33.528904 5.186033 -24.113029
RightLeg 77.799045 -0.000000 -0.000000
RightFoot 30.833240 -16.448760 -4.627193
RightToeBase -40.914961 -0.000000 0.000000
1594
root -0.344135 28.309686 -2.481338 24.064457 86.168219 115.290508
Spine -52.842140 2.186022 -1.917370
Head -107.089108 1.091494 2.312491
LeftShoulder -33.136235 15.482166 42.366565
LeftArm 140.762386 -55.444788 -149.046869
LeftForeArm 40.418874 0.000000 59.550280
LeftHand -37.745379 -0.000000 114.423760
LeftHandThumb1 -26.253704 0.000000 33.147579
RightShoulder -31.948899 27.115978 -56.199096
RightArm 212.480872 111.468397 208.994970
RightForeArm -44.370746 -0.000000 63.242397
RightHand -12.794137 -0.000000 -81.417237
RightHandThumb1 -24.326973 -0.000000 -32.862282
LeftUpLeg 37.941873 2.783571 24.843097
LeftLeg 75.620845 -0.000000 -0.000000
LeftFoot 20.056787 16.972476 -18.578393
LeftToeBase -44.567008 -0.000000 0.000000
RightUpLeg 33.434148 5.013820 -24.203746
RightLeg 77.528154 -0.000000 -0.000000
RightFoot 30.908881 -16.513116 -4.330159
RightToeBase -40.619525 -0.000000 0.000000
1595
root -0.439416 28.325227 -2.471912 27.891558 86.200317 119.120427
Spine -52.811403 2.417615 -1.970398
Head -107.409738 -0.096017 2.114996
LeftShoulder -31.500331 2.052310 39.974458
LeftArm 136.506743 -63.583771 -131.200560
LeftForeArm 40.972849 -0.000000 52.680017
LeftHand -36.372373 0.000000 117.397965
LeftHandThumb1 -26.253704 0.000000 33.147579
RightShoulder -33.233694 26.440552 -58.203051
RightArm 214.363692 111.592588 213.103717
RightForeArm -45.107916 -0.000000 64.310861
RightHand -12.997510 0.000000 -80.749644
RightHandThumb1 -24.326973 -0.000000 -32.862282
LeftUpLeg 37.786888 2.698575 24.499959
LeftLeg 75.374382 -0.000000 -0.000000
LeftFoot 20.258015 17.133823 -18.649855
LeftToeBase -44.493278 -0.000000 0.000000
RightUpLeg 33.453835 4.807488 -24.436921
RightLeg 77.251550 -0.000000 -0.000000
RightFoot 30.980288 -16.609409 -4.077607
RightToeBase -40.269894 -0.000000 0.000000
